<svg width="24" height="24" viewBox="0 0 24 24" fill="none" xmlns="http://www.w3.org/2000/svg">
<g clip-path="url(#clip0_433_110829)">
<path d="M14.4866 3.1429C14.7418 3.21469 14.9581 3.3849 15.0879 3.61612C15.2177 3.84734 15.2503 4.12063 15.1786 4.3759L10.7486 20.1639C10.7131 20.2904 10.6531 20.4086 10.572 20.5119C10.4908 20.6151 10.3901 20.7014 10.2756 20.7658C10.1611 20.8301 10.0351 20.8713 9.90468 20.8869C9.77427 20.9026 9.64206 20.8924 9.5156 20.8569C9.38914 20.8214 9.2709 20.7614 9.16763 20.6803C9.06436 20.5991 8.97809 20.4984 8.91374 20.3839C8.84939 20.2694 8.80822 20.1434 8.79258 20.013C8.77694 19.8826 8.78714 19.7504 8.8226 19.6239L13.2526 3.8359C13.288 3.70931 13.3481 3.59096 13.4293 3.4876C13.5105 3.38425 13.6113 3.29792 13.7259 3.23355C13.8405 3.16919 13.9667 3.12805 14.0972 3.1125C14.2278 3.09694 14.3601 3.10727 14.4866 3.1429ZM7.2076 7.0499C7.39507 7.23742 7.50039 7.49173 7.50039 7.7569C7.50039 8.02206 7.39507 8.27637 7.2076 8.46389L3.6726 11.9999L7.2076 15.5349C7.30051 15.6277 7.37422 15.738 7.42453 15.8593C7.47484 15.9806 7.50076 16.1107 7.5008 16.242C7.50085 16.3734 7.47502 16.5035 7.4248 16.6248C7.37458 16.7462 7.30094 16.8565 7.2081 16.9494C7.11525 17.0423 7.00502 17.116 6.88369 17.1663C6.76235 17.2166 6.6323 17.2426 6.50095 17.2426C6.3696 17.2426 6.23953 17.2168 6.11816 17.1666C5.9968 17.1164 5.88651 17.0427 5.7936 16.9499L1.5506 12.7069C1.36313 12.5194 1.25781 12.2651 1.25781 11.9999C1.25781 11.7347 1.36313 11.4804 1.5506 11.2929L5.7936 7.0499C5.98113 6.86242 6.23543 6.75711 6.5006 6.75711C6.76576 6.75711 7.02007 6.86242 7.2076 7.0499ZM16.7936 8.46389C16.6981 8.37165 16.6219 8.2613 16.5695 8.1393C16.5171 8.0173 16.4895 7.88608 16.4883 7.7533C16.4872 7.62052 16.5125 7.48884 16.5628 7.36594C16.6131 7.24304 16.6873 7.13139 16.7812 7.0375C16.8751 6.94361 16.9867 6.86935 17.1096 6.81907C17.2325 6.76879 17.3642 6.74349 17.497 6.74464C17.6298 6.7458 17.761 6.77338 17.883 6.82579C18.005 6.8782 18.1154 6.95439 18.2076 7.0499L22.4506 11.2929C22.6381 11.4804 22.7434 11.7347 22.7434 11.9999C22.7434 12.2651 22.6381 12.5194 22.4506 12.7069L18.2076 16.9499C18.02 17.1374 17.7655 17.2427 17.5002 17.2426C17.235 17.2425 16.9806 17.137 16.7931 16.9494C16.6056 16.7618 16.5003 16.5073 16.5004 16.242C16.5005 15.9768 16.606 15.7224 16.7936 15.5349L20.3286 11.9999L16.7936 8.46389Z" fill="#7C6FFF"/>
</g>
<defs>
<clipPath id="clip0_433_110829">
<rect width="24" height="24" fill="white"/>
</clipPath>
</defs>
</svg>
