<svg width="24" height="24" viewBox="0 0 24 24" fill="none" xmlns="http://www.w3.org/2000/svg">
<path d="M7.28945 4.90789C10.4235 4.63552 13.5754 4.63552 16.7095 4.90789L18.2205 5.03789C18.7049 5.08016 19.1709 5.24401 19.5752 5.51425C19.9795 5.7845 20.3091 6.1524 20.5335 6.58389C20.5597 6.63714 20.5648 6.69829 20.548 6.75519C20.5311 6.81208 20.4934 6.86054 20.4425 6.89089L14.1765 10.7709C13.517 11.1792 12.7583 11.3992 11.9827 11.4072C11.2071 11.4151 10.4441 11.2106 9.77646 10.8159L3.46946 7.08789C3.41974 7.05979 3.38191 7.0146 3.36297 6.96073C3.34403 6.90685 3.34527 6.84793 3.36646 6.79489C3.57084 6.31036 3.90355 5.89077 4.32876 5.58133C4.75396 5.2719 5.25554 5.08435 5.77946 5.03889L7.28945 4.90789Z" fill="#7C6FFF"/>
<path d="M3.36193 8.76689C3.3262 8.74572 3.28572 8.73387 3.24422 8.73241C3.20271 8.73096 3.1615 8.73995 3.12438 8.75856C3.08725 8.77717 3.05539 8.80481 3.03173 8.83894C3.00806 8.87307 2.99335 8.9126 2.98893 8.95389C2.73537 11.4717 2.79718 14.0114 3.17293 16.5139C3.2701 17.1549 3.58003 17.7447 4.05286 18.1883C4.5257 18.632 5.13399 18.9037 5.77993 18.9599L7.28993 19.0909C10.4249 19.3639 13.5769 19.3639 16.7119 19.0909L18.2219 18.9609C18.8681 18.9044 19.4765 18.6321 19.9492 18.1879C20.4219 17.7437 20.7314 17.1533 20.8279 16.5119C21.2146 13.9365 21.2687 11.3221 20.9889 8.73289C20.9841 8.69143 20.9688 8.65185 20.9446 8.61784C20.9204 8.58383 20.888 8.55649 20.8504 8.53834C20.8128 8.52019 20.7713 8.51182 20.7296 8.51401C20.6879 8.51621 20.6474 8.52889 20.6119 8.55089L14.9669 12.0449C14.0749 12.5969 13.0489 12.8944 11.9999 12.9052C10.951 12.9159 9.91907 12.6395 9.01593 12.1059L3.36193 8.76689Z" fill="#7C6FFF"/>
</svg>
