<svg width="24" height="24" viewBox="0 0 24 24" fill="none" xmlns="http://www.w3.org/2000/svg">
<path d="M5 5.0001C4.9999 4.6482 5.09265 4.30249 5.26888 3.99789C5.44512 3.6933 5.69861 3.44059 6.00375 3.2653C6.30889 3.09001 6.65488 2.99833 7.00679 2.99952C7.3587 3.00072 7.70406 3.09474 8.008 3.2721L20.005 10.2701C20.3078 10.4458 20.5591 10.6978 20.7339 11.0011C20.9088 11.3044 21.0009 11.6482 21.0012 11.9982C21.0015 12.3483 20.91 12.6923 20.7357 12.9958C20.5614 13.2994 20.3105 13.5519 20.008 13.7281L8.008 20.7281C7.70406 20.9055 7.3587 20.9995 7.00679 21.0007C6.65488 21.0019 6.30889 20.9102 6.00375 20.7349C5.69861 20.5596 5.44512 20.3069 5.26888 20.0023C5.09265 19.6977 4.9999 19.352 5 19.0001V5.0001Z" stroke="#7C6FFF" stroke-width="2" stroke-linecap="round" stroke-linejoin="round"/>
</svg>
