<svg width="24" height="24" viewBox="0 0 24 24" fill="none" xmlns="http://www.w3.org/2000/svg">
<path d="M19.4105 5.50023C18.6305 4.72023 17.3605 4.72023 16.5805 5.50023L15.2905 6.79023L13.9805 8.10023L8.15047 9.69023L6.14047 18.7202C5.55047 18.9002 4.94047 18.9802 4.56047 18.7702C4.06047 18.4902 3.99047 17.5402 3.99047 17.0002C3.99047 15.1302 4.76047 12.9802 5.50047 10.8902C6.56047 7.92023 7.48047 5.36023 6.22047 3.58023C5.47047 2.51023 4.08047 1.99023 1.98047 1.99023V3.99023C2.93047 3.99023 4.15047 4.12023 4.58047 4.73023C5.24047 5.66023 4.41047 7.97023 3.61047 10.2102C2.85047 12.3502 1.98047 14.7702 1.98047 16.9902C1.98047 18.7202 2.51047 19.9002 3.57047 20.5002C4.06047 20.7802 4.60047 20.8802 5.14047 20.8802C5.68047 20.8802 6.22047 20.7702 6.70047 20.6202L7.66047 21.5802L17.7805 19.3302L19.3705 13.5002L20.6805 12.1902L21.9705 10.9002C22.7505 10.1202 22.7505 8.85023 21.9705 8.07023L19.3805 5.48023L19.4105 5.50023ZM9.85047 19.0602L12.9205 15.9902H13.0005C13.8305 15.9902 14.5005 15.3202 14.5005 14.4902C14.5005 13.6602 13.8305 12.9902 13.0005 12.9902C12.1705 12.9902 11.5005 13.6602 11.5005 14.4902V14.5702L8.43047 17.6402L9.84047 11.3002L14.9805 9.90023L17.5905 12.5102L16.1905 17.6502L9.85047 19.0602ZM19.0005 11.0802L16.4105 8.49023L16.7005 8.20023L17.9905 6.91023L20.5805 9.50023L19.2905 10.7902L19.0005 11.0802Z" fill="#7C6FFF"/>
</svg>
