<svg width="24" height="24" viewBox="0 0 24 24" fill="none" xmlns="http://www.w3.org/2000/svg">
<path d="M5.04 2C4.49896 2 3.98008 2.22098 3.5975 2.61432C3.21493 3.00765 3 3.54114 3 4.0974C3 4.65367 3.21493 5.18715 3.5975 5.58049C3.98008 5.97383 4.49896 6.19481 5.04 6.19481C5.58104 6.19481 6.09992 5.97383 6.4825 5.58049C6.86507 5.18715 7.08 4.65367 7.08 4.0974C7.08 3.54114 6.86507 3.00765 6.4825 2.61432C6.09992 2.22098 5.58104 2 5.04 2ZM3.12 7.92208C3.08817 7.92208 3.05765 7.93508 3.03515 7.95821C3.01264 7.98135 3 8.01273 3 8.04545V20.8766C3 20.9447 3.05376 21 3.12 21H6.96C6.99183 21 7.02235 20.987 7.04485 20.9639C7.06736 20.9407 7.08 20.9093 7.08 20.8766V8.04545C7.08 8.01273 7.06736 7.98135 7.04485 7.95821C7.02235 7.93508 6.99183 7.92208 6.96 7.92208H3.12ZM9.36 7.92208C9.32817 7.92208 9.29765 7.93508 9.27515 7.95821C9.25264 7.98135 9.24 8.01273 9.24 8.04545V20.8766C9.24 20.9447 9.29376 21 9.36 21H13.2C13.2318 21 13.2623 20.987 13.2849 20.9639C13.3074 20.9407 13.32 20.9093 13.32 20.8766V13.9675C13.32 13.4767 13.5096 13.006 13.8472 12.6589C14.1848 12.3119 14.6426 12.1169 15.12 12.1169C15.5974 12.1169 16.0552 12.3119 16.3928 12.6589C16.7304 13.006 16.92 13.4767 16.92 13.9675V20.8766C16.92 20.9447 16.9738 21 17.04 21H20.88C20.9118 21 20.9423 20.987 20.9649 20.9639C20.9874 20.9407 21 20.9093 21 20.8766V12.3686C21 9.97309 18.9744 8.09974 16.656 8.3159C15.9387 8.38355 15.2362 8.56604 14.5738 8.85678L13.32 9.40951V8.04545C13.32 8.01273 13.3074 7.98135 13.2849 7.95821C13.2623 7.93508 13.2318 7.92208 13.2 7.92208H9.36Z" fill="#7C6FFF"/>
</svg>
